<?xml version="1.0" encoding="UTF-8" standalone="no"?>
<!DOCTYPE svg PUBLIC "-//W3C//DTD SVG 1.1//EN"
 "http://www.w3.org/Graphics/SVG/1.1/DTD/svg11.dtd">
<!-- Generated by graphviz version 5.0.0 (20220707.1540)
 -->
<!-- Title: dependencies Pages: 1 -->
<svg width="785pt" height="174pt"
 viewBox="0.00 0.00 785.00 173.80" xmlns="http://www.w3.org/2000/svg" xmlns:xlink="http://www.w3.org/1999/xlink">
<g id="graph0" class="graph" transform="scale(1 1) rotate(0) translate(4 169.8)">
<title>dependencies</title>
<polygon fill="white" stroke="transparent" points="-4,4 -4,-169.8 781,-169.8 781,4 -4,4"/>
<text text-anchor="middle" x="388.5" y="-8.2" font-family="sans-serif" font-size="14.00">dependencies</text>
<g id="clust1" class="cluster">
<title>cluster_RequestModule</title>
<polygon fill="none" stroke="black" stroke-dasharray="1,5" points="8,-32.8 8,-157.8 769,-157.8 769,-32.8 8,-32.8"/>
</g>
<g id="clust6" class="cluster">
<title>cluster_RequestModule_providers</title>
<polygon fill="none" stroke="black" points="16,-40.8 16,-92.8 761,-92.8 761,-40.8 16,-40.8"/>
</g>
<!-- DriverService -->
<g id="node1" class="node">
<title>DriverService</title>
<ellipse fill="#fdb462" stroke="black" cx="688" cy="-66.8" rx="65.39" ry="18"/>
<text text-anchor="middle" x="688" y="-62.6" font-family="Times,serif" font-size="14.00">DriverService</text>
</g>
<!-- RequestModule -->
<g id="node6" class="node">
<title>RequestModule</title>
<polygon fill="#8dd3c7" stroke="black" points="420.16,-149.8 417.16,-153.8 396.16,-153.8 393.16,-149.8 315.84,-149.8 315.84,-113.8 420.16,-113.8 420.16,-149.8"/>
<text text-anchor="middle" x="368" y="-127.6" font-family="Times,serif" font-size="14.00">RequestModule</text>
</g>
<!-- DriverService&#45;&gt;RequestModule -->
<g id="edge1" class="edge">
<title>DriverService&#45;&gt;RequestModule</title>
<path fill="none" stroke="black" d="M688,-85.08C688,-106.12 688,-137.8 688,-137.8 688,-137.8 430.48,-137.8 430.48,-137.8"/>
<polygon fill="black" stroke="black" points="430.48,-134.3 420.48,-137.8 430.48,-141.3 430.48,-134.3"/>
</g>
<!-- PaymentService -->
<g id="node2" class="node">
<title>PaymentService</title>
<ellipse fill="#fdb462" stroke="black" cx="531" cy="-66.8" rx="73.58" ry="18"/>
<text text-anchor="middle" x="531" y="-62.6" font-family="Times,serif" font-size="14.00">PaymentService</text>
</g>
<!-- PaymentService&#45;&gt;RequestModule -->
<g id="edge2" class="edge">
<title>PaymentService&#45;&gt;RequestModule</title>
<path fill="none" stroke="black" d="M531,-84.82C531,-102.17 531,-125.8 531,-125.8 531,-125.8 430.47,-125.8 430.47,-125.8"/>
<polygon fill="black" stroke="black" points="430.47,-122.3 420.47,-125.8 430.47,-129.3 430.47,-122.3"/>
</g>
<!-- RequestService -->
<g id="node3" class="node">
<title>RequestService</title>
<ellipse fill="#fdb462" stroke="black" cx="368" cy="-66.8" rx="71.21" ry="18"/>
<text text-anchor="middle" x="368" y="-62.6" font-family="Times,serif" font-size="14.00">RequestService</text>
</g>
<!-- RequestService&#45;&gt;RequestModule -->
<g id="edge3" class="edge">
<title>RequestService&#45;&gt;RequestModule</title>
<path fill="none" stroke="black" d="M368,-84.91C368,-84.91 368,-103.79 368,-103.79"/>
<polygon fill="black" stroke="black" points="364.5,-103.79 368,-113.79 371.5,-103.79 364.5,-103.79"/>
</g>
<!-- RiderService -->
<g id="node4" class="node">
<title>RiderService</title>
<ellipse fill="#fdb462" stroke="black" cx="217" cy="-66.8" rx="61.4" ry="18"/>
<text text-anchor="middle" x="217" y="-62.6" font-family="Times,serif" font-size="14.00">RiderService</text>
</g>
<!-- RiderService&#45;&gt;RequestModule -->
<g id="edge4" class="edge">
<title>RiderService&#45;&gt;RequestModule</title>
<path fill="none" stroke="black" d="M217,-84.82C217,-102.17 217,-125.8 217,-125.8 217,-125.8 305.61,-125.8 305.61,-125.8"/>
<polygon fill="black" stroke="black" points="305.61,-129.3 315.61,-125.8 305.61,-122.3 305.61,-129.3"/>
</g>
<!-- TripService -->
<g id="node5" class="node">
<title>TripService</title>
<ellipse fill="#fdb462" stroke="black" cx="81" cy="-66.8" rx="56.74" ry="18"/>
<text text-anchor="middle" x="81" y="-62.6" font-family="Times,serif" font-size="14.00">TripService</text>
</g>
<!-- TripService&#45;&gt;RequestModule -->
<g id="edge5" class="edge">
<title>TripService&#45;&gt;RequestModule</title>
<path fill="none" stroke="black" d="M81,-85.08C81,-106.12 81,-137.8 81,-137.8 81,-137.8 305.69,-137.8 305.69,-137.8"/>
<polygon fill="black" stroke="black" points="305.69,-141.3 315.69,-137.8 305.69,-134.3 305.69,-141.3"/>
</g>
</g>
</svg>
