<?xml version="1.0" encoding="UTF-8" standalone="no"?>
<!DOCTYPE svg PUBLIC "-//W3C//DTD SVG 1.1//EN"
 "http://www.w3.org/Graphics/SVG/1.1/DTD/svg11.dtd">
<!-- Generated by graphviz version 5.0.0 (20220707.1540)
 -->
<!-- Title: dependencies Pages: 1 -->
<svg width="170pt" height="174pt"
 viewBox="0.00 0.00 170.00 173.80" xmlns="http://www.w3.org/2000/svg" xmlns:xlink="http://www.w3.org/1999/xlink">
<g id="graph0" class="graph" transform="scale(1 1) rotate(0) translate(4 169.8)">
<title>dependencies</title>
<polygon fill="white" stroke="transparent" points="-4,4 -4,-169.8 166,-169.8 166,4 -4,4"/>
<text text-anchor="middle" x="81" y="-8.2" font-family="sans-serif" font-size="14.00">dependencies</text>
<g id="clust1" class="cluster">
<title>cluster_DatabaseModule</title>
<polygon fill="none" stroke="black" stroke-dasharray="1,5" points="8,-32.8 8,-157.8 154,-157.8 154,-32.8 8,-32.8"/>
</g>
<g id="clust4" class="cluster">
<title>cluster_DatabaseModule_exports</title>
<polygon fill="none" stroke="black" points="16,-97.8 16,-149.8 146,-149.8 146,-97.8 16,-97.8"/>
</g>
<!-- DatabaseModule  -->
<g id="node1" class="node">
<title>DatabaseModule </title>
<polygon fill="#fb8072" stroke="black" points="138.36,-141.8 23.64,-141.8 23.64,-105.8 138.36,-105.8 138.36,-141.8"/>
<text text-anchor="middle" x="81" y="-119.6" font-family="Times,serif" font-size="14.00">DatabaseModule </text>
</g>
<!-- DatabaseModule -->
<g id="node2" class="node">
<title>DatabaseModule</title>
<polygon fill="#8dd3c7" stroke="black" points="136.36,-76.8 133.36,-80.8 112.36,-80.8 109.36,-76.8 25.64,-76.8 25.64,-40.8 136.36,-40.8 136.36,-76.8"/>
<text text-anchor="middle" x="81" y="-54.6" font-family="Times,serif" font-size="14.00">DatabaseModule</text>
</g>
<!-- DatabaseModule&#45;&gt;DatabaseModule  -->
<g id="edge1" class="edge">
<title>DatabaseModule&#45;&gt;DatabaseModule </title>
<path fill="none" stroke="black" stroke-dasharray="5,2" d="M81,-76.91C81,-76.91 81,-95.79 81,-95.79"/>
<polygon fill="black" stroke="black" points="77.5,-95.79 81,-105.79 84.5,-95.79 77.5,-95.79"/>
</g>
</g>
</svg>
