<?xml version="1.0" encoding="UTF-8" standalone="no"?>
<!DOCTYPE svg PUBLIC "-//W3C//DTD SVG 1.1//EN"
 "http://www.w3.org/Graphics/SVG/1.1/DTD/svg11.dtd">
<!-- Generated by graphviz version 5.0.0 (20220707.1540)
 -->
<!-- Title: dependencies Pages: 1 -->
<svg width="158pt" height="174pt"
 viewBox="0.00 0.00 158.00 173.80" xmlns="http://www.w3.org/2000/svg" xmlns:xlink="http://www.w3.org/1999/xlink">
<g id="graph0" class="graph" transform="scale(1 1) rotate(0) translate(4 169.8)">
<title>dependencies</title>
<polygon fill="white" stroke="transparent" points="-4,4 -4,-169.8 154,-169.8 154,4 -4,4"/>
<text text-anchor="middle" x="75" y="-8.2" font-family="sans-serif" font-size="14.00">dependencies</text>
<g id="clust1" class="cluster">
<title>cluster_ConfigModule</title>
<polygon fill="none" stroke="black" stroke-dasharray="1,5" points="8,-32.8 8,-157.8 142,-157.8 142,-32.8 8,-32.8"/>
</g>
<g id="clust4" class="cluster">
<title>cluster_ConfigModule_exports</title>
<polygon fill="none" stroke="black" points="16,-97.8 16,-149.8 134,-149.8 134,-97.8 16,-97.8"/>
</g>
<!-- ConfigModule  -->
<g id="node1" class="node">
<title>ConfigModule </title>
<polygon fill="#fb8072" stroke="black" points="125.94,-141.8 24.06,-141.8 24.06,-105.8 125.94,-105.8 125.94,-141.8"/>
<text text-anchor="middle" x="75" y="-119.6" font-family="Times,serif" font-size="14.00">ConfigModule </text>
</g>
<!-- ConfigModule -->
<g id="node2" class="node">
<title>ConfigModule</title>
<polygon fill="#8dd3c7" stroke="black" points="124.44,-76.8 121.44,-80.8 100.44,-80.8 97.44,-76.8 25.56,-76.8 25.56,-40.8 124.44,-40.8 124.44,-76.8"/>
<text text-anchor="middle" x="75" y="-54.6" font-family="Times,serif" font-size="14.00">ConfigModule</text>
</g>
<!-- ConfigModule&#45;&gt;ConfigModule  -->
<g id="edge1" class="edge">
<title>ConfigModule&#45;&gt;ConfigModule </title>
<path fill="none" stroke="black" stroke-dasharray="5,2" d="M75,-76.91C75,-76.91 75,-95.79 75,-95.79"/>
<polygon fill="black" stroke="black" points="71.5,-95.79 75,-105.79 78.5,-95.79 71.5,-95.79"/>
</g>
</g>
</svg>
