<?xml version="1.0" encoding="UTF-8" standalone="no"?>
<!DOCTYPE svg PUBLIC "-//W3C//DTD SVG 1.1//EN"
 "http://www.w3.org/Graphics/SVG/1.1/DTD/svg11.dtd">
<!-- Generated by graphviz version 5.0.0 (20220707.1540)
 -->
<!-- Title: dependencies Pages: 1 -->
<svg width="1130pt" height="329pt"
 viewBox="0.00 0.00 1130.00 328.80" xmlns="http://www.w3.org/2000/svg" xmlns:xlink="http://www.w3.org/1999/xlink">
<g id="graph0" class="graph" transform="scale(1 1) rotate(0) translate(4 324.8)">
<title>dependencies</title>
<polygon fill="white" stroke="transparent" points="-4,4 -4,-324.8 1126,-324.8 1126,4 -4,4"/>
<text text-anchor="middle" x="561" y="-8.2" font-family="sans-serif" font-size="14.00">dependencies</text>
<g id="clust1" class="cluster">
<title>cluster_ApiModule</title>
<polygon fill="none" stroke="black" stroke-dasharray="1,5" points="300,-108.8 300,-236.8 436,-236.8 436,-108.8 300,-108.8"/>
</g>
<g id="clust3" class="cluster">
<title>cluster_ApiModule_imports</title>
<polygon fill="none" stroke="black" points="308,-116.8 308,-168.8 428,-168.8 428,-116.8 308,-116.8"/>
</g>
<g id="clust7" class="cluster">
<title>cluster_AppModule</title>
<polygon fill="none" stroke="black" stroke-dasharray="1,5" points="444,-176.8 444,-304.8 818,-304.8 818,-176.8 444,-176.8"/>
</g>
<g id="clust9" class="cluster">
<title>cluster_AppModule_imports</title>
<polygon fill="none" stroke="black" points="452,-184.8 452,-236.8 810,-236.8 810,-184.8 452,-184.8"/>
</g>
<g id="clust13" class="cluster">
<title>cluster_ConfigModule</title>
<polygon fill="none" stroke="black" stroke-dasharray="1,5" points="826,-244.8 826,-312.8 960,-312.8 960,-244.8 826,-244.8"/>
</g>
<g id="clust16" class="cluster">
<title>cluster_ConfigModule_exports</title>
<polygon fill="none" stroke="black" points="834,-252.8 834,-304.8 952,-304.8 952,-252.8 834,-252.8"/>
</g>
<g id="clust19" class="cluster">
<title>cluster_DatabaseModule</title>
<polygon fill="none" stroke="black" stroke-dasharray="1,5" points="968,-244.8 968,-312.8 1114,-312.8 1114,-244.8 968,-244.8"/>
</g>
<g id="clust22" class="cluster">
<title>cluster_DatabaseModule_exports</title>
<polygon fill="none" stroke="black" points="976,-252.8 976,-304.8 1106,-304.8 1106,-252.8 976,-252.8"/>
</g>
<g id="clust31" class="cluster">
<title>cluster_RequestModule</title>
<polygon fill="none" stroke="black" stroke-dasharray="1,5" points="8,-32.8 8,-100.8 769,-100.8 769,-32.8 8,-32.8"/>
</g>
<g id="clust36" class="cluster">
<title>cluster_RequestModule_providers</title>
<polygon fill="none" stroke="black" points="16,-40.8 16,-92.8 761,-92.8 761,-40.8 16,-40.8"/>
</g>
<!-- RequestModule -->
<g id="node1" class="node">
<title>RequestModule</title>
<polygon fill="#8dd3c7" stroke="black" points="420.16,-160.8 417.16,-164.8 396.16,-164.8 393.16,-160.8 315.84,-160.8 315.84,-124.8 420.16,-124.8 420.16,-160.8"/>
<text text-anchor="middle" x="368" y="-138.6" font-family="Times,serif" font-size="14.00">RequestModule</text>
</g>
<!-- ApiModule -->
<g id="node2" class="node">
<title>ApiModule</title>
<polygon fill="#8dd3c7" stroke="black" points="418.05,-228.8 415.05,-232.8 394.05,-232.8 391.05,-228.8 337.95,-228.8 337.95,-192.8 418.05,-192.8 418.05,-228.8"/>
<text text-anchor="middle" x="378" y="-206.6" font-family="Times,serif" font-size="14.00">ApiModule</text>
</g>
<!-- RequestModule&#45;&gt;ApiModule -->
<g id="edge1" class="edge">
<title>RequestModule&#45;&gt;ApiModule</title>
<path fill="none" stroke="black" d="M378,-161.02C378,-161.02 378,-182.53 378,-182.53"/>
<polygon fill="black" stroke="black" points="374.5,-182.53 378,-192.53 381.5,-182.53 374.5,-182.53"/>
</g>
<!-- AppModule -->
<g id="node6" class="node">
<title>AppModule</title>
<polygon fill="#8dd3c7" stroke="black" points="607.66,-296.8 604.66,-300.8 583.66,-300.8 580.66,-296.8 524.34,-296.8 524.34,-260.8 607.66,-260.8 607.66,-296.8"/>
<text text-anchor="middle" x="566" y="-274.6" font-family="Times,serif" font-size="14.00">AppModule</text>
</g>
<!-- ApiModule&#45;&gt;AppModule -->
<g id="edge2" class="edge">
<title>ApiModule&#45;&gt;AppModule</title>
<path fill="none" stroke="black" d="M378,-229.02C378,-249.17 378,-278.8 378,-278.8 378,-278.8 514.28,-278.8 514.28,-278.8"/>
<polygon fill="black" stroke="black" points="514.28,-282.3 524.28,-278.8 514.28,-275.3 514.28,-282.3"/>
</g>
<!-- ConfigModule -->
<g id="node3" class="node">
<title>ConfigModule</title>
<polygon fill="#8dd3c7" stroke="black" points="673.44,-228.8 670.44,-232.8 649.44,-232.8 646.44,-228.8 574.56,-228.8 574.56,-192.8 673.44,-192.8 673.44,-228.8"/>
<text text-anchor="middle" x="624" y="-206.6" font-family="Times,serif" font-size="14.00">ConfigModule</text>
</g>
<!-- ConfigModule&#45;&gt;AppModule -->
<g id="edge3" class="edge">
<title>ConfigModule&#45;&gt;AppModule</title>
<path fill="none" stroke="black" d="M591.31,-229.02C591.31,-229.02 591.31,-250.53 591.31,-250.53"/>
<polygon fill="black" stroke="black" points="587.81,-250.53 591.31,-260.53 594.81,-250.53 587.81,-250.53"/>
</g>
<!-- ConfigModule  -->
<g id="node7" class="node">
<title>ConfigModule </title>
<polygon fill="#fb8072" stroke="black" points="943.94,-296.8 842.06,-296.8 842.06,-260.8 943.94,-260.8 943.94,-296.8"/>
<text text-anchor="middle" x="893" y="-274.6" font-family="Times,serif" font-size="14.00">ConfigModule </text>
</g>
<!-- ConfigModule&#45;&gt;ConfigModule  -->
<g id="edge6" class="edge">
<title>ConfigModule&#45;&gt;ConfigModule </title>
<path fill="none" stroke="black" stroke-dasharray="5,2" d="M640.53,-229.07C640.53,-247.36 640.53,-272.8 640.53,-272.8 640.53,-272.8 831.91,-272.8 831.91,-272.8"/>
<polygon fill="black" stroke="black" points="831.91,-276.3 841.91,-272.8 831.91,-269.3 831.91,-276.3"/>
</g>
<!-- DatabaseModule -->
<g id="node4" class="node">
<title>DatabaseModule</title>
<polygon fill="#8dd3c7" stroke="black" points="802.36,-228.8 799.36,-232.8 778.36,-232.8 775.36,-228.8 691.64,-228.8 691.64,-192.8 802.36,-192.8 802.36,-228.8"/>
<text text-anchor="middle" x="747" y="-206.6" font-family="Times,serif" font-size="14.00">DatabaseModule</text>
</g>
<!-- DatabaseModule&#45;&gt;AppModule -->
<g id="edge4" class="edge">
<title>DatabaseModule&#45;&gt;AppModule</title>
<path fill="none" stroke="black" d="M747,-229.09C747,-251.01 747,-284.8 747,-284.8 747,-284.8 617.98,-284.8 617.98,-284.8"/>
<polygon fill="black" stroke="black" points="617.98,-281.3 607.98,-284.8 617.98,-288.3 617.98,-281.3"/>
</g>
<!-- DatabaseModule  -->
<g id="node8" class="node">
<title>DatabaseModule </title>
<polygon fill="#fb8072" stroke="black" points="1098.36,-296.8 983.64,-296.8 983.64,-260.8 1098.36,-260.8 1098.36,-296.8"/>
<text text-anchor="middle" x="1041" y="-274.6" font-family="Times,serif" font-size="14.00">DatabaseModule </text>
</g>
<!-- DatabaseModule&#45;&gt;DatabaseModule  -->
<g id="edge7" class="edge">
<title>DatabaseModule&#45;&gt;DatabaseModule </title>
<path fill="none" stroke="black" stroke-dasharray="5,2" d="M802.64,-210.8C887.88,-210.8 1041,-210.8 1041,-210.8 1041,-210.8 1041,-250.58 1041,-250.58"/>
<polygon fill="black" stroke="black" points="1037.5,-250.58 1041,-260.58 1044.5,-250.58 1037.5,-250.58"/>
</g>
<!-- HealthModule -->
<g id="node5" class="node">
<title>HealthModule</title>
<polygon fill="#8dd3c7" stroke="black" points="556.37,-228.8 553.37,-232.8 532.37,-232.8 529.37,-228.8 459.63,-228.8 459.63,-192.8 556.37,-192.8 556.37,-228.8"/>
<text text-anchor="middle" x="508" y="-206.6" font-family="Times,serif" font-size="14.00">HealthModule</text>
</g>
<!-- HealthModule&#45;&gt;AppModule -->
<g id="edge5" class="edge">
<title>HealthModule&#45;&gt;AppModule</title>
<path fill="none" stroke="black" d="M540.3,-229.02C540.3,-229.02 540.3,-250.53 540.3,-250.53"/>
<polygon fill="black" stroke="black" points="536.8,-250.53 540.3,-260.53 543.8,-250.53 536.8,-250.53"/>
</g>
<!-- DriverService -->
<g id="node9" class="node">
<title>DriverService</title>
<ellipse fill="#fdb462" stroke="black" cx="688" cy="-66.8" rx="65.39" ry="18"/>
<text text-anchor="middle" x="688" y="-62.6" font-family="Times,serif" font-size="14.00">DriverService</text>
</g>
<!-- DriverService&#45;&gt;RequestModule -->
<g id="edge8" class="edge">
<title>DriverService&#45;&gt;RequestModule</title>
<path fill="none" stroke="black" d="M648.01,-81.08C648.01,-104.58 648.01,-148.8 648.01,-148.8 648.01,-148.8 430.34,-148.8 430.34,-148.8"/>
<polygon fill="black" stroke="black" points="430.34,-145.3 420.34,-148.8 430.34,-152.3 430.34,-145.3"/>
</g>
<!-- PaymentService -->
<g id="node10" class="node">
<title>PaymentService</title>
<ellipse fill="#fdb462" stroke="black" cx="531" cy="-66.8" rx="73.58" ry="18"/>
<text text-anchor="middle" x="531" y="-62.6" font-family="Times,serif" font-size="14.00">PaymentService</text>
</g>
<!-- PaymentService&#45;&gt;RequestModule -->
<g id="edge9" class="edge">
<title>PaymentService&#45;&gt;RequestModule</title>
<path fill="none" stroke="black" d="M508,-84.1C508,-104.83 508,-136.8 508,-136.8 508,-136.8 430.53,-136.8 430.53,-136.8"/>
<polygon fill="black" stroke="black" points="430.53,-133.3 420.53,-136.8 430.53,-140.3 430.53,-133.3"/>
</g>
<!-- RequestService -->
<g id="node11" class="node">
<title>RequestService</title>
<ellipse fill="#fdb462" stroke="black" cx="368" cy="-66.8" rx="71.21" ry="18"/>
<text text-anchor="middle" x="368" y="-62.6" font-family="Times,serif" font-size="14.00">RequestService</text>
</g>
<!-- RequestService&#45;&gt;RequestModule -->
<g id="edge10" class="edge">
<title>RequestService&#45;&gt;RequestModule</title>
<path fill="none" stroke="black" d="M368,-84.81C368,-84.81 368,-114.65 368,-114.65"/>
<polygon fill="black" stroke="black" points="364.5,-114.65 368,-124.65 371.5,-114.65 364.5,-114.65"/>
</g>
<!-- RiderService -->
<g id="node12" class="node">
<title>RiderService</title>
<ellipse fill="#fdb462" stroke="black" cx="217" cy="-66.8" rx="61.4" ry="18"/>
<text text-anchor="middle" x="217" y="-62.6" font-family="Times,serif" font-size="14.00">RiderService</text>
</g>
<!-- RiderService&#45;&gt;RequestModule -->
<g id="edge11" class="edge">
<title>RiderService&#45;&gt;RequestModule</title>
<path fill="none" stroke="black" d="M217,-84.83C217,-105.57 217,-136.8 217,-136.8 217,-136.8 305.61,-136.8 305.61,-136.8"/>
<polygon fill="black" stroke="black" points="305.61,-140.3 315.61,-136.8 305.61,-133.3 305.61,-140.3"/>
</g>
<!-- TripService -->
<g id="node13" class="node">
<title>TripService</title>
<ellipse fill="#fdb462" stroke="black" cx="81" cy="-66.8" rx="56.74" ry="18"/>
<text text-anchor="middle" x="81" y="-62.6" font-family="Times,serif" font-size="14.00">TripService</text>
</g>
<!-- TripService&#45;&gt;RequestModule -->
<g id="edge12" class="edge">
<title>TripService&#45;&gt;RequestModule</title>
<path fill="none" stroke="black" d="M81,-85C81,-109.16 81,-148.8 81,-148.8 81,-148.8 305.69,-148.8 305.69,-148.8"/>
<polygon fill="black" stroke="black" points="305.69,-152.3 315.69,-148.8 305.69,-145.3 305.69,-152.3"/>
</g>
</g>
</svg>
